#!OML:ASF X:\für Bonn\!DataBase\2005_08_11_Bastian_Final\c3d\Bastian.ASF
:FULLY-SPECIFIED
:DEGREES
369
root 1.09707 16.9968 -16.0495 524.713 -225.9 -183.575
lowerback 9.83196 3.10074 4.68389
upperback 8.24696 4.66096 -0.800564
thorax 3.57505 2.68397 -3.73261
lowerneck -12.938 -7.72435 4.14702
upperneck 7.25025 -11.4129 3.67792
head 4.25477 -5.25714 -0.350129
rclavicle -1.19271e-014 -1.11319e-014
rhumerus -24.8293 51.5822 -97.7905
rradius 75.3775
rwrist 1.01001
rhand -19.8045 6.9904
rfingers 7.12502
rthumb 6.52858 -22.889
lclavicle -1.19271e-014 -1.11319e-014
lhumerus -67.8834 -52.1245 -232.583
lradius 36.8213
lwrist -263.506
lhand -24.9767 -4.23093
lfingers 7.12502
lthumb 1.53407 25.7433
rfemur 1.2096 11.9924 24.0004
rtibia 42.3284
rfoot -16.9076 -3.80287
rtoes 14.0158
lfemur 6.57616 -4.76569 -12.438
ltibia 33.3242
lfoot -21.9554 -0.213262
ltoes -34.5559
370
root 1.11705 17.0028 -16.0609 524.618 -226.118 -183.728
lowerback 9.64925 2.96187 4.44754
upperback 8.19814 4.44951 -0.782542
thorax 3.57768 2.56284 -3.5621
lowerneck -12.8982 -7.6578 3.96349
upperneck 7.29433 -11.308 3.8104
head 4.28068 -5.20119 -0.276243
rclavicle 5.63555e-014 -1.47101e-014
rhumerus -26.4932 51.0105 -98.7423
rradius 74.239
rwrist 0.529505
rhand -19.2526 6.98507
rfingers 7.12502
rthumb 7.06127 -22.8771
lclavicle 5.63555e-014 -1.47101e-014
lhumerus -61.6831 -50.4605 -239.683
lradius 36.6172
lwrist -268.351
lhand -25.4758 -3.40055
lfingers 7.12502
lthumb 1.05199 26.5766
rfemur 1.35494 11.9667 24.0368
rtibia 42.1348
rfoot -16.9268 -4.02349
rtoes 13.2691
lfemur 6.54664 -4.86156 -12.4432
ltibia 33.2872
lfoot -21.7647 -0.278099
ltoes -34.0337
371
root 1.13814 17.0086 -16.0705 524.541 -226.37 -183.875
lowerback 9.41873 2.82289 4.18458
upperback 8.15826 4.23479 -0.750295
thorax 3.61455 2.43931 -3.35887
lowerneck -12.8726 -7.59428 3.78037
upperneck 7.33648 -11.2066 3.92938
head 4.30707 -5.14776 -0.207005
rclavicle -3.37934e-014 -1.51076e-014
rhumerus -28.0814 50.3653 -99.5942
rradius 73.0063
rwrist -0.0149567
rhand -18.6891 6.82527
rfingers 7.12502
rthumb 7.60524 -23.018
lclavicle -3.37934e-014 -1.51076e-014
lhumerus -55.2871 -47.7305 -246.912
lradius 36.1309
lwrist -274.033
lhand -25.3812 -2.44403
lfingers 7.12502
lthumb 1.14336 27.5327
rfemur 1.49856 11.9583 24.0851
rtibia 41.943
rfoot -16.9539 -4.31504
rtoes 12.3106
lfemur 6.50277 -5.01967 -12.4752
ltibia 33.2697
lfoot -21.602 -0.315365
ltoes -33.5562
372
root 1.15885 17.0138 -16.0804 524.404 -226.648 -184.059
lowerback 9.22505 2.66943 3.96432
upperback 8.13052 4.00649 -0.712956
thorax 3.64874 2.3115 -3.17604
lowerneck -12.8561 -7.53711 3.55814
upperneck 7.4047 -11.1122 4.07393
head 4.34637 -5.09613 -0.125785
rclavicle -5.55603e-014 2.70347e-014
rhumerus -29.5685 49.6723 -100.342
rradius 71.6735
rwrist -0.565116
rhand -18.1552 6.49508
rfingers 7.12502
rthumb 8.12055 -23.3289
lclavicle -5.55603e-014 2.70347e-014
lhumerus -49.1564 -43.9513 -253.751
lradius 35.3047
lwrist -280.447
lhand -24.6585 -1.55514
lfingers 7.12502
lthumb 1.84141 28.4167
rfemur 1.68237 11.9576 24.1714
rtibia 41.7519
rfoot -16.9586 -4.60878
rtoes 11.6527
lfemur 6.46376 -5.10624 -12.4425
ltibia 33.2742
lfoot -21.4303 -0.491494
ltoes -32.9488
373
root 1.17995 17.0184 -16.0909 524.275 -226.964 -184.213
lowerback 9.04042 2.50933 3.69861
upperback 8.11377 3.7677 -0.655612
thorax 3.68626 2.17608 -2.94749
lowerneck -12.812 -7.49128 3.2866
upperneck 7.44233 -11.0238 4.23861
head 4.37519 -5.04939 -0.0295527
rclavicle -4.72114e-014 -1.07344e-014
rhumerus -30.9493 48.985 -100.969
rradius 70.2196
rwrist -1.08975
rhand -17.7689 5.99001
rfingers 7.12502
rthumb 8.49339 -23.8192
lclavicle -4.72114e-014 -1.07344e-014
lhumerus -43.1975 -38.7929 -260.12
lradius 33.9062
lwrist -287.863
lhand -23.1415 -0.823942
lfingers 7.12502
lthumb 3.30642 29.1302
rfemur 1.87834 11.9064 24.2129
rtibia 41.5618
rfoot -16.9789 -4.8542
rtoes 11.129
lfemur 6.42139 -5.15241 -12.4209
ltibia 33.2988
lfoot -21.2946 -0.737437
ltoes -32.3188
374
root 1.20153 17.0232 -16.1036 524.139 -227.296 -184.405
lowerback 8.8492 2.34208 3.49978
upperback 8.0901 3.52399 -0.607878
thorax 3.72832 2.04161 -2.76657
lowerneck -12.7728 -7.4448 3.03286
upperneck 7.47703 -10.9379 4.40544
head 4.40274 -5.00328 0.0646109
rclavicle 1.07443e-013 -1.27222e-014
rhumerus -32.1991 48.1993 -101.49
rradius 68.6143
rwrist -1.50888
rhand -17.4468 5.4119
rfingers 7.12502
rthumb 8.80417 -24.3845
lclavicle 1.07443e-013 -1.27222e-014
lhumerus -37.6871 -32.586 -265.635
lradius 31.8729
lwrist -296.116
lhand -21.0792 -0.531149
lfingers 7.12502
lthumb 5.29786 29.3826
rfemur 2.04457 11.8382 24.264
rtibia 41.3769
rfoot -16.9942 -5.08774
rtoes 10.6788
lfemur 6.32249 -5.1096 -12.3378
ltibia 33.3397
lfoot -21.1136 -1.0989
ltoes -31.7467
375
root 1.22366 17.0274 -16.1189 523.971 -227.635 -184.613
lowerback 8.68665 2.16691 3.33183
upperback 8.08474 3.27346 -0.549217
thorax 3.77741 1.90572 -2.59288
lowerneck -12.7518 -7.41215 2.74338
upperneck 7.52457 -10.8681 4.58582
head 4.43966 -4.9645 0.166123
rclavicle -5.78463e-014 1.11319e-014
rhumerus -33.3063 47.4551 -101.866
rradius 66.9153
rwrist -1.97453
rhand -17.3093 4.76968
rfingers 7.12502
rthumb 8.93693 -25.021
lclavicle -5.78463e-014 1.11319e-014
lhumerus -32.4617 -25.3361 -270.322
lradius 29.0328
lwrist -305.107
lhand -18.4947 -0.994985
lfingers 7.12502
lthumb 7.79284 28.8414
rfemur 2.22147 11.6979 24.294
rtibia 41.1928
rfoot -17.0352 -5.26267
rtoes 10.0157
lfemur 6.24033 -5.13913 -12.2768
ltibia 33.3997
lfoot -20.9882 -1.42587
ltoes -31.0198
376
root 1.24617 17.0313 -16.1347 523.817 -227.999 -184.781
lowerback 8.54261 1.999 3.14217
upperback 8.07604 3.03255 -0.487558
thorax 3.81423 1.7733 -2.40611
lowerneck -12.7028 -7.38348 2.43649
upperneck 7.5501 -10.7983 4.76692
head 4.46583 -4.92771 0.272312
rclavicle 2.29596e-014 -2.5842e-014
rhumerus -34.2479 46.6263 -102.125
rradius 64.9865
rwrist -2.36009
rhand -17.2352 4.21391
rfingers 7.12502
rthumb 9.00844 -25.5737
lclavicle 2.29596e-014 -2.5842e-014
lhumerus -27.5097 -17.3746 -274.121
lradius 25.37
lwrist -314.484
lhand -15.7525 -2.41563
lfingers 7.12502
lthumb 10.4389 27.3052
rfemur 2.41467 11.6199 24.3167
rtibia 41.0185
rfoot -17.0594 -5.4913
rtoes 9.54938
lfemur 6.15329 -5.08957 -12.224
ltibia 33.4692
lfoot -20.8441 -1.8014
ltoes -30.55
377
root 1.26908 17.034 -16.151 523.631 -228.344 -184.976
lowerback 8.39396 1.82607 2.97035
upperback 8.08743 2.78637 -0.412923
thorax 3.87737 1.63962 -2.21548
lowerneck -12.6406 -7.34772 2.11544
upperneck 7.54372 -10.7181 4.98364
head 4.48235 -4.88536 0.393541
rclavicle 5.07895e-014 3.97569e-015
rhumerus -35.0022 45.8004 -102.246
rradius 62.8772
rwrist -2.69651
rhand -17.3111 3.78591
rfingers 7.12502
rthumb 8.93516 -26.0049
lclavicle 5.07895e-014 3.97569e-015
lhumerus -22.7677 -9.51277 -277.019
lradius 21.0704
lwrist -323.253
lhand -13.3963 -4.7964
lfingers 7.12502
lthumb 12.7111 24.7967
rfemur 2.61533 11.49 24.3332
rtibia 40.8462
rfoot -17.0963 -5.6561
rtoes 9.2449
lfemur 6.07749 -5.05876 -12.156
ltibia 33.5548
lfoot -20.7394 -2.22363
ltoes -29.8134
378
root 1.29217 17.0355 -16.1684 523.437 -228.683 -185.148
lowerback 8.28338 1.65296 2.80213
upperback 8.10351 2.54219 -0.3452
thorax 3.92761 1.50737 -2.03625
lowerneck -12.5815 -7.31307 1.79403
upperneck 7.55391 -10.6392 5.1834
head 4.5031 -4.84422 0.509388
rclavicle -1.76918e-014 3.57812e-015
rhumerus -35.6479 44.9356 -102.286
rradius 60.6745
rwrist -2.99692
rhand -17.4587 3.38994
rfingers 7.12502
rthumb 8.7927 -26.4069
lclavicle -1.76918e-014 3.57812e-015
lhumerus -18.1764 -2.78084 -279.013
lradius 16.3007
lwrist -330.441
lhand -11.7718 -7.89944
lfingers 7.12502
lthumb 14.2769 21.5898
rfemur 2.82802 11.3475 24.3291
rtibia 40.6894
rfoot -17.1286 -5.81648
rtoes 8.72084
lfemur 6.0257 -4.97841 -12.0928
ltibia 33.6418
lfoot -20.6342 -2.65789
ltoes -29.3618
379
root 1.31574 17.037 -16.185 523.209 -229.001 -185.352
lowerback 8.16889 1.4972 2.66158
upperback 8.1233 2.32244 -0.261325
thorax 3.98816 1.38842 -1.85704
lowerneck -12.4929 -7.28527 1.49486
upperneck 7.54676 -10.5679 5.35171
head 4.51041 -4.80959 0.613613
rclavicle 2.38542e-015 -7.95139e-016
rhumerus -36.1649 43.9456 -102.172
rradius 58.3962
rwrist -3.29464
rhand -17.5902 3.14051
rfingers 7.12502
rthumb 8.66581 -26.6616
lclavicle 2.38542e-015 -7.95139e-016
lhumerus -14.1313 0.758882 -279.995
lradius 12.2538
lwrist -334.054
lhand -10.98 -10.8907
lfingers 7.12502
lthumb 15.0398 18.543
rfemur 3.05613 11.2628 24.3755
rtibia 40.5385
rfoot -17.1315 -6.05134
rtoes 8.37274
lfemur 5.97144 -4.77946 -11.9615
ltibia 33.7413
lfoot -20.5835 -3.19075
ltoes -29.0075
380
root 1.3391 17.0372 -16.2008 523.01 -229.314 -185.494
lowerback 8.05251 1.34678 2.45016
upperback 8.1668 2.10714 -0.17373
thorax 4.07397 1.26885 -1.63458
lowerneck -12.4143 -7.25056 1.19315
upperneck 7.50638 -10.4874 5.5389
head 4.50977 -4.77025 0.725112
rclavicle -6.04305e-014 9.14409e-015
rhumerus -36.5196 42.9784 -101.937
rradius 56.0527
rwrist -3.66566
rhand -17.7093 2.89352
rfingers 7.12502
rthumb 8.55083 -26.9133
lclavicle -6.04305e-014 9.14409e-015
lhumerus -12.8785 -0.829369 -280.13
lradius 13.9155
lwrist -332.351
lhand -10.7384 -10.9987
lfingers 7.12502
lthumb 15.2725 18.4174
rfemur 3.29159 11.1641 24.3778
rtibia 40.4031
rfoot -17.1464 -6.2524
rtoes 8.13774
lfemur 5.93395 -4.44532 -11.8169
ltibia 33.8449
lfoot -20.5461 -3.86819
ltoes -28.7363
381
root 1.36315 17.0367 -16.215 522.794 -229.586 -185.665
lowerback 7.9339 1.21667 2.25651
upperback 8.19567 1.91946 -0.0771426
thorax 4.14963 1.163 -1.41471
lowerneck -12.3153 -7.22117 0.949977
upperneck 7.49504 -10.4182 5.65809
head 4.50774 -4.73858 0.806789
rclavicle 3.26007e-014 -2.34566e-014
rhumerus -36.7723 41.8387 -101.589
rradius 53.6348
rwrist -3.91704
rhand -17.8249 2.72893
rfingers 7.12502
rthumb 8.43935 -27.0825
lclavicle 3.26007e-014 -2.34566e-014
lhumerus -11.7115 -1.24433 -280.466
lradius 15.5893
lwrist -331.657
lhand -10.3267 -11.1142
lfingers 7.12502
lthumb 15.6691 18.2713
rfemur 3.52731 11.1143 24.4166
rtibia 40.2742
rfoot -17.1333 -6.45788
rtoes 8.14617
lfemur 5.88988 -4.00416 -11.6003
ltibia 33.964
lfoot -20.5439 -4.65777
ltoes -28.5103
382
root 1.3877 17.0344 -16.2285 522.546 -229.84 -185.856
lowerback 7.79958 1.08972 2.08487
upperback 8.24669 1.73744 0.0223994
thorax 4.26073 1.06167 -1.20402
lowerneck -12.2171 -7.18492 0.711984
upperneck 7.458 -10.341 5.79495
head 4.49825 -4.70261 0.894192
rclavicle -1.05505e-013 1.90833e-014
rhumerus -36.9102 40.6656 -101.117
rradius 51.2469
rwrist -4.14984
rhand -17.8708 2.54244
rfingers 7.12502
rthumb 8.39498 -27.2707
lclavicle -1.05505e-013 1.90833e-014
lhumerus -10.588 -1.49725 -280.822
lradius 17.3216
lwrist -330.967
lhand -9.87757 -11.1221
lfingers 7.12502
lthumb 16.1015 18.229
rfemur 3.78873 11.1501 24.5194
rtibia 40.1558
rfoot -17.1237 -6.79275
rtoes 7.95101
lfemur 5.8629 -3.52359 -11.3567
ltibia 34.0919
lfoot -20.5517 -5.45119
ltoes -28.3142
383
root 1.4115 17.0316 -16.2437 522.285 -230.097 -186.036
lowerback 7.70117 0.96491 1.91013
upperback 8.31053 1.56002 0.119515
thorax 4.36779 0.962704 -0.995634
lowerneck -12.1869 -7.14276 0.513806
upperneck 7.46599 -10.2651 5.91182
head 4.5104 -4.66432 0.966181
rclavicle 2.56432e-014 1.27222e-014
rhumerus -36.8976 39.3477 -100.498
rradius 48.8184
rwrist -4.28894
rhand -17.7836 2.37734
rfingers 7.12502
rthumb 8.47922 -27.4324
lclavicle 2.56432e-014 1.27222e-014
lhumerus -9.54485 -1.84127 -281.163
lradius 19.1458
lwrist -330.073
lhand -9.55984 -11.047
lfingers 7.12502
lthumb 16.4075 18.2791
rfemur 4.08846 11.3498 24.6852
rtibia 40.0417
rfoot -17.0772 -7.25883
rtoes 8.22256
lfemur 5.8459 -2.99049 -11.1003
ltibia 34.2281
lfoot -20.5572 -6.30224
ltoes -28.1709
